{"title":"HardcoreGangbang Simone Sonay.wmv","uid":9033295,"size":950630884,"categoryP":"porn","categoryS":"movie_clips","magnet":"?xt=urn:btih:5ca469f84afc535e96e4804e7320ffe3b5a066fd&amp;dn=HardcoreGangbang+Simone+Sonay.wmv&amp;tr=udp%3A%2F%2Ftracker.openbittorrent.com%3A80&amp;tr=udp%3A%2F%2Fopen.demonii.com%3A1337&amp;tr=udp%3A%2F%2Ftracker.coppersurfer.tk%3A6969&amp;tr=udp%3A%2F%2Fexodus.desync.com%3A6969","seeders":0,"leechers":1,"uploader":null,"files":1,"time":1381460097,"description":" &lt;a href=&quot;http://bayimg.com/eAABIAaFN&quot; rel=&quot;nofollow&quot; target=&quot;_NEW&quot;&gt;http://bayimg.com/eAABIAaFN&lt;/a&gt;\n\nSimone Sonay lives out her gangbang fantasy at a well orchestrated swingers party with the help of her husband. Double anal, double vaginal, airtight penetration, rough sex, and role play!\n\n\n\n\nFormat : Windows Media\nFile size : 907 MiB\nDuration : 1h 17mn\nOverall bit rate mode : Variable\nOverall bit rate : 1 639 Kbps\nMaximum Overall bit rate : 7 158 Kbps\nEncoded date : UTC 2013-10-08 08:40:07.782\nRating : xxx\n\nVideo\nID : 2\nFormat : VC-1\nFormat profile : MP@HL\nCodec ID : WMV3\nCodec ID/Info : Windows Media Video 9\nCodec ID/Hint : WMV3\nDescription of the codec : Windows Media Video 9 - Professional\nDuration : 1h 17mn\nBit rate mode : Variable\nBit rate : 1 500 Kbps\nWidth : 1 280 pixels\nHeight : 720 pixels\nDisplay aspect ratio : 16:9\nFrame rate : 29.970 fps\nBit depth : 8 bits\nScan type : Progressive\nCompression mode : Lossy\nBits/(Pixel*Frame) : 0.054\nStream size : 830 MiB (92%)\n\nAudio\nID : 1\nFormat : WMA\nFormat version : Version 2\nCodec ID : 161\nCodec ID/Info : Windows Media Audio\nDescription of the codec : Windows Media Audio 9.1 - 128 kbps, 44 kHz, stereo 2-pass CBR\nDuration : 1h 17mn\nBit rate mode : Constant\nBit rate : 128 Kbps\nChannel(s) : 2 channels\nSampling rate : 44.1 KHz\nBit depth : 16 bits\nStream size : 70.8 MiB (8%)","torrent":{"xt":"urn:btih:5ca469f84afc535e96e4804e7320ffe3b5a066fd","amp;dn":"HardcoreGangbang+Simone+Sonay.wmv","amp;tr":["udp%3A%2F%2Ftracker.openbittorrent.com%3A80","udp%3A%2F%2Fopen.demonii.com%3A1337","udp%3A%2F%2Ftracker.coppersurfer.tk%3A6969","udp%3A%2F%2Fexodus.desync.com%3A6969"],"infoHash":"5ca469f84afc535e96e4804e7320ffe3b5a066fd","infoHashBuffer":{"type":"Buffer","data":[92,164,105,248,74,252,83,94,150,228,128,78,115,32,255,227,181,160,102,253]},"announce":[],"urlList":[]}}